<svg xmlns="http://www.w3.org/2000/svg" viewBox="0 0 860 226" width="860" height="226" role="img" aria-label="GitHub activity for ALPHAMAN-0: 1,076 contributions, 580 commits 12mo, 63 repos 12mo, 75 public repos, 9 stars, 8 followers, 2 day streak, 18 longest">
<style>text{font-family:'SFMono-Regular','Cascadia Mono',Consolas,'Liberation Mono',Menlo,monospace}
.in{animation:in .52s cubic-bezier(.2,.7,.3,1) both}
@keyframes in{from{opacity:0;transform:translateY(6px)}}
.draw{stroke-dasharray:1;animation:draw 1.6s cubic-bezier(.2,.7,.3,1) both}
@keyframes draw{from{stroke-dashoffset:1}}
.cur{animation:blink 1.1s steps(1) infinite}
@keyframes blink{50%{opacity:0}}
@media (prefers-reduced-motion:reduce){*{animation:none!important}}</style>
<rect x="0.5" y="0.5" width="859" height="225" rx="10" fill="#ffffff" stroke="#d0d7de"/>
<line x1="0" y1="30" x2="860" y2="30" stroke="#d0d7de"/>
<circle cx="22" cy="15" r="5.5" fill="#1f2328"/><circle cx="40" cy="15" r="5.5" fill="#6e7781"/><circle cx="58" cy="15" r="5.5" fill="#d0d7de"/>
<text x="430" y="19" text-anchor="middle" font-size="11" fill="#57606a">siam@dhaka: ~/git-log</text>
<text x="28" y="54" font-size="11" fill="#57606a" class="in" textLength="250.8" lengthAdjust="spacingAndGlyphs">siam@dhaka ❯ git log --shortstat --all</text>
<line x1="28" y1="68" x2="832" y2="68" stroke="#d0d7de"/>
<g class="in" style="animation-delay:0.00s">
<text x="78.3" y="100" font-size="25" fill="#1f2328" text-anchor="middle" textLength="75" lengthAdjust="spacingAndGlyphs">1,076</text>
<text x="78.3" y="120" font-size="9.5" fill="#57606a" text-anchor="middle" textLength="74.1" lengthAdjust="spacingAndGlyphs">contributions</text>
</g>
<g class="in" style="animation-delay:0.05s">
<text x="178.8" y="100" font-size="25" fill="#1f2328" text-anchor="middle" textLength="45" lengthAdjust="spacingAndGlyphs">580</text>
<text x="178.8" y="120" font-size="9.5" fill="#57606a" text-anchor="middle" textLength="68.4" lengthAdjust="spacingAndGlyphs">commits 12mo</text>
</g>
<g class="in" style="animation-delay:0.10s">
<text x="279.3" y="100" font-size="25" fill="#1f2328" text-anchor="middle" textLength="30" lengthAdjust="spacingAndGlyphs">63</text>
<text x="279.3" y="120" font-size="9.5" fill="#57606a" text-anchor="middle" textLength="57" lengthAdjust="spacingAndGlyphs">repos 12mo</text>
</g>
<g class="in" style="animation-delay:0.15s">
<text x="379.8" y="100" font-size="25" fill="#1f2328" text-anchor="middle" textLength="30" lengthAdjust="spacingAndGlyphs">75</text>
<text x="379.8" y="120" font-size="9.5" fill="#57606a" text-anchor="middle" textLength="68.4" lengthAdjust="spacingAndGlyphs">public repos</text>
</g>
<g class="in" style="animation-delay:0.20s">
<text x="480.3" y="100" font-size="25" fill="#1f2328" text-anchor="middle" textLength="15" lengthAdjust="spacingAndGlyphs">9</text>
<text x="480.3" y="120" font-size="9.5" fill="#57606a" text-anchor="middle" textLength="28.5" lengthAdjust="spacingAndGlyphs">stars</text>
</g>
<g class="in" style="animation-delay:0.25s">
<text x="580.8" y="100" font-size="25" fill="#1f2328" text-anchor="middle" textLength="15" lengthAdjust="spacingAndGlyphs">8</text>
<text x="580.8" y="120" font-size="9.5" fill="#57606a" text-anchor="middle" textLength="51.3" lengthAdjust="spacingAndGlyphs">followers</text>
</g>
<g class="in" style="animation-delay:0.30s">
<text x="681.3" y="100" font-size="25" fill="#1f2328" text-anchor="middle" textLength="15" lengthAdjust="spacingAndGlyphs">2</text>
<text x="681.3" y="120" font-size="9.5" fill="#57606a" text-anchor="middle" textLength="57" lengthAdjust="spacingAndGlyphs">day streak</text>
</g>
<g class="in" style="animation-delay:0.35s">
<text x="781.8" y="100" font-size="25" fill="#1f2328" text-anchor="middle" textLength="30" lengthAdjust="spacingAndGlyphs">18</text>
<text x="781.8" y="120" font-size="9.5" fill="#57606a" text-anchor="middle" textLength="39.9" lengthAdjust="spacingAndGlyphs">longest</text>
</g>
<line x1="28" y1="136" x2="832" y2="136" stroke="#d0d7de"/>
<polyline class="draw" pathLength="1" points="28.0,187.5 43.8,188.6 59.5,194.9 75.3,196.0 91.1,191.2 106.8,189.1 122.6,196.0 138.4,192.3 154.1,183.3 169.9,192.3 185.6,196.0 201.4,195.5 217.2,190.2 232.9,195.5 248.7,193.9 264.5,192.3 280.2,194.9 296.0,190.7 311.8,193.3 327.5,186.5 343.3,190.7 359.1,192.8 374.8,191.2 390.6,192.3 406.4,194.9 422.1,194.4 437.9,192.3 453.6,185.9 469.4,165.3 485.2,189.1 500.9,190.7 516.7,182.2 532.5,184.9 548.2,188.0 564.0,181.7 579.8,188.6 595.5,174.8 611.3,166.8 627.1,176.4 642.8,189.1 658.6,176.4 674.4,192.3 690.1,185.9 705.9,167.4 721.6,168.4 737.4,190.2 753.2,173.2 768.9,184.9 784.7,181.2 800.5,177.4 816.2,152.0 832.0,182.7" fill="none" stroke="#1f2328" stroke-width="1.6" stroke-linejoin="round" stroke-linecap="round"/>
<line x1="28" y1="196" x2="832" y2="196" stroke="#d0d7de"/>
<text x="28" y="212" font-size="9.5" fill="#57606a" class="in" style="animation-delay:0.45s" textLength="165.3" lengthAdjust="spacingAndGlyphs">contributions · last 52 weeks</text>
<text x="832" y="212" font-size="9.5" fill="#57606a" text-anchor="end" class="in" style="animation-delay:0.45s" textLength="57" lengthAdjust="spacingAndGlyphs">peak 83/wk</text>
</svg>
